<svg width="32" height="32" viewBox="0 0 32 32" xmlns="http://www.w3.org/2000/svg">
  <!-- Building base -->
  <rect x="4" y="4" width="24" height="26" fill="#374151" rx="2"/>

  <!-- Floor lines (9 floors) -->
  <line x1="4" y1="7" x2="28" y2="7" stroke="#4b5563" stroke-width="0.5"/>
  <line x1="4" y1="10" x2="28" y2="10" stroke="#4b5563" stroke-width="0.5"/>
  <line x1="4" y1="13" x2="28" y2="13" stroke="#4b5563" stroke-width="0.5"/>
  <line x1="4" y1="16" x2="28" y2="16" stroke="#4b5563" stroke-width="0.5"/>
  <line x1="4" y1="19" x2="28" y2="19" stroke="#4b5563" stroke-width="0.5"/>
  <line x1="4" y1="22" x2="28" y2="22" stroke="#4b5563" stroke-width="0.5"/>
  <line x1="4" y1="25" x2="28" y2="25" stroke="#4b5563" stroke-width="0.5"/>
  <line x1="4" y1="28" x2="28" y2="28" stroke="#4b5563" stroke-width="0.5"/>

  <!-- 9th floor highlighted (top floor) -->
  <rect x="4" y="4" width="24" height="3" fill="#2e8555" rx="2" ry="0"/>

  <!-- Windows on 9th floor glowing -->
  <rect x="7" y="5" width="3" height="1.5" fill="#86efac" rx="0.5"/>
  <rect x="12" y="5" width="3" height="1.5" fill="#86efac" rx="0.5"/>
  <rect x="17" y="5" width="3" height="1.5" fill="#86efac" rx="0.5"/>
  <rect x="22" y="5" width="3" height="1.5" fill="#86efac" rx="0.5"/>

  <!-- Number 9 badge -->
  <circle cx="26" cy="26" r="5" fill="#2e8555"/>
  <text x="26" y="29" text-anchor="middle" font-family="Arial" font-size="7" font-weight="bold" fill="white">9</text>
</svg>
