<svg xmlns="http://www.w3.org/2000/svg" viewBox="0 0 900 500" width="900" height="500">
  <defs>
    <style>
      .title { font: 600 24px -apple-system, BlinkMacSystemFont, 'Segoe UI', Roboto, sans-serif; fill: #1e293b; }
      .workload-label { font: 500 15px -apple-system, BlinkMacSystemFont, 'Segoe UI', Roboto, sans-serif; fill: #334155; }
      .badge-text { font: 600 14px -apple-system, BlinkMacSystemFont, 'Segoe UI', Roboto, sans-serif; fill: white; }
      .metric-text { font: 400 12px -apple-system, BlinkMacSystemFont, 'Segoe UI', Roboto, sans-serif; fill: #475569; }
      .scale-text { font: 400 13px -apple-system, BlinkMacSystemFont, 'Segoe UI', Roboto, sans-serif; fill: #64748b; }
    </style>
  </defs>

  <!-- Background -->
  <rect width="900" height="500" fill="#ffffff"/>

  <!-- Header -->
  <text x="450" y="40" class="title" text-anchor="middle">Recommended CNI Configuration by Workload</text>

  <!-- Row 1: Dev/Staging -->
  <g transform="translate(0, 80)">
    <circle cx="50" cy="12" r="8" fill="#94a3b8"/>
    <text x="70" y="18" class="workload-label">Dev/Staging</text>
    <rect x="400" y="0" width="450" height="40" fill="#f1f5f9" stroke="#cbd5e1" stroke-width="1" rx="6"/>
    <rect x="415" y="8" width="140" height="24" fill="#64748b" rx="4"/>
    <text x="485" y="26" class="badge-text" text-anchor="middle">A: VPC CNI</text>
    <text x="570" y="26" class="metric-text">Minimal operational complexity</text>
  </g>

  <!-- Row 2: General Production -->
  <g transform="translate(0, 140)">
    <circle cx="50" cy="12" r="8" fill="#60a5fa"/>
    <text x="70" y="18" class="workload-label">General Production</text>
    <rect x="400" y="0" width="450" height="40" fill="#eff6ff" stroke="#93c5fd" stroke-width="1" rx="6"/>
    <rect x="415" y="8" width="160" height="24" fill="#3b82f6" rx="4"/>
    <text x="495" y="26" class="badge-text" text-anchor="middle">D: Cilium ENI</text>
    <text x="590" y="26" class="metric-text">RTT -9%, eBPF O(1)</text>
  </g>

  <!-- Row 3: UDP Intensive -->
  <g transform="translate(0, 200)">
    <circle cx="50" cy="12" r="8" fill="#34d399"/>
    <text x="70" y="18" class="workload-label">UDP-heavy (Streaming/Gaming)</text>
    <rect x="400" y="0" width="450" height="40" fill="#d1fae5" stroke="#6ee7b7" stroke-width="1" rx="6"/>
    <rect x="415" y="8" width="160" height="24" fill="#10b981" rx="4"/>
    <text x="495" y="26" class="badge-text" text-anchor="middle">E: ENI+Tuning</text>
    <text x="590" y="26" class="metric-text">UDP Loss 0.03%</text>
  </g>

  <!-- Row 4: Latency Sensitive -->
  <g transform="translate(0, 260)">
    <circle cx="50" cy="12" r="8" fill="#22c55e"/>
    <text x="70" y="18" class="workload-label">Latency-sensitive (Finance/Real-time)</text>
    <rect x="400" y="0" width="450" height="40" fill="#d1fae5" stroke="#6ee7b7" stroke-width="1" rx="6"/>
    <rect x="415" y="8" width="160" height="24" fill="#10b981" rx="4"/>
    <text x="495" y="26" class="badge-text" text-anchor="middle">E: ENI+Tuning</text>
    <text x="590" y="26" class="metric-text">RTT 3,135µs (-36%)</text>
  </g>

  <!-- Row 5: Network Policy Required -->
  <g transform="translate(0, 320)">
    <circle cx="50" cy="12" r="8" fill="#14b8a6"/>
    <text x="70" y="18" class="workload-label">Network Policy Required</text>
    <rect x="400" y="0" width="450" height="40" fill="#ccfbf1" stroke="#5eead4" stroke-width="1" rx="6"/>
    <rect x="415" y="8" width="160" height="24" fill="#14b8a6" rx="4"/>
    <text x="495" y="26" class="badge-text" text-anchor="middle">C or D</text>
    <text x="590" y="26" class="metric-text">L3/L4/L7 policies</text>
  </g>

  <!-- Row 6: IP Constrained -->
  <g transform="translate(0, 380)">
    <circle cx="50" cy="12" r="8" fill="#059669"/>
    <text x="70" y="18" class="workload-label">IP-constrained Environment</text>
    <rect x="400" y="0" width="450" height="40" fill="#d1fae5" stroke="#6ee7b7" stroke-width="1" rx="6"/>
    <rect x="415" y="8" width="160" height="24" fill="#059669" rx="4"/>
    <text x="495" y="26" class="badge-text" text-anchor="middle">C: kp-less</text>
    <text x="590" y="26" class="metric-text">VXLAN Overlay</text>
  </g>

  <!-- Complexity Scale -->
  <g transform="translate(50, 450)">
    <rect x="0" y="0" width="800" height="30" fill="#f8fafc" stroke="#e2e8f0" stroke-width="1" rx="6"/>

    <!-- Gradient bar -->
    <defs>
      <linearGradient id="complexityGradient" x1="0%" y1="0%" x2="100%" y2="0%">
        <stop offset="0%" style="stop-color:#64748b;stop-opacity:0.3"/>
        <stop offset="25%" style="stop-color:#3b82f6;stop-opacity:0.4"/>
        <stop offset="50%" style="stop-color:#14b8a6;stop-opacity:0.5"/>
        <stop offset="75%" style="stop-color:#10b981;stop-opacity:0.6"/>
        <stop offset="100%" style="stop-color:#059669;stop-opacity:0.7"/>
      </linearGradient>
    </defs>
    <rect x="10" y="5" width="780" height="20" fill="url(#complexityGradient)" rx="3"/>

    <!-- Labels -->
    <text x="30" y="22" class="scale-text">A(Low)</text>
    <text x="250" y="22" class="scale-text">B/C(Medium)</text>
    <text x="420" y="22" class="scale-text">D(Medium-High)</text>
    <text x="680" y="22" class="scale-text">E(High)</text>

    <text x="-40" y="22" class="scale-text" font-weight="600">Operational Complexity:</text>
  </g>
</svg>