<svg xmlns="http://www.w3.org/2000/svg" viewBox="0 0 800 420" style="font-family: -apple-system, BlinkMacSystemFont, 'Segoe UI', Roboto, sans-serif;">
  <!-- Background -->
  <rect width="800" height="420" fill="#ffffff"/>

  <!-- Legend (top, above chart) -->
  <g transform="translate(310, 20)">
    <rect x="0" y="0" width="18" height="14" fill="#475569" rx="3"/>
    <text x="24" y="12" font-size="13" fill="#475569" font-weight="500">TCP</text>
    <rect x="90" y="0" width="18" height="14" fill="#475569" opacity="0.45" rx="3"/>
    <text x="114" y="12" font-size="13" fill="#475569" font-weight="500">UDP</text>
  </g>

  <!-- Chart area -->
  <g transform="translate(80, 50)">
    <!-- Grid lines -->
    <line x1="0" y1="280" x2="640" y2="280" stroke="#e2e8f0" stroke-width="1"/>
    <line x1="0" y1="233" x2="640" y2="233" stroke="#e2e8f0" stroke-width="1"/>
    <line x1="0" y1="186" x2="640" y2="186" stroke="#e2e8f0" stroke-width="1"/>
    <line x1="0" y1="140" x2="640" y2="140" stroke="#e2e8f0" stroke-width="1"/>
    <line x1="0" y1="93" x2="640" y2="93" stroke="#e2e8f0" stroke-width="1"/>
    <line x1="0" y1="46" x2="640" y2="46" stroke="#e2e8f0" stroke-width="1"/>

    <!-- Y-axis limit line -->
    <line x1="0" y1="53" x2="640" y2="53" stroke="#f59e0b" stroke-width="2" stroke-dasharray="5,5"/>
    <text x="645" y="58" font-size="11" fill="#f59e0b" font-weight="500">12.5 Gbps (NIC Limit)</text>

    <!-- Y-axis -->
    <line x1="0" y1="0" x2="0" y2="280" stroke="#94a3b8" stroke-width="2"/>

    <!-- Y-axis labels -->
    <text x="-10" y="284" text-anchor="end" font-size="12" fill="#64748b">0</text>
    <text x="-10" y="237" text-anchor="end" font-size="12" fill="#64748b">2</text>
    <text x="-10" y="190" text-anchor="end" font-size="12" fill="#64748b">4</text>
    <text x="-10" y="144" text-anchor="end" font-size="12" fill="#64748b">6</text>
    <text x="-10" y="97" text-anchor="end" font-size="12" fill="#64748b">8</text>
    <text x="-10" y="50" text-anchor="end" font-size="12" fill="#64748b">10</text>
    <text x="-10" y="5" text-anchor="end" font-size="12" fill="#64748b">12</text>

    <!-- X-axis -->
    <line x1="0" y1="280" x2="640" y2="280" stroke="#94a3b8" stroke-width="2"/>

    <!-- Group A: VPC CNI -->
    <g>
      <rect x="40" y="33" width="28" height="247" fill="#64748b" rx="3"/>
      <rect x="74" y="87" width="28" height="193" fill="#64748b" opacity="0.45" rx="3"/>
      <text x="71" y="305" text-anchor="middle" font-size="12" fill="#475569" font-weight="500">A: VPC CNI</text>
    </g>

    <!-- Group B: Cilium+kp -->
    <g>
      <rect x="168" y="35" width="28" height="245" fill="#8b5cf6" rx="3"/>
      <rect x="202" y="126" width="28" height="154" fill="#8b5cf6" opacity="0.45" rx="3"/>
      <text x="199" y="305" text-anchor="middle" font-size="12" fill="#475569" font-weight="500">B: Cilium+kp</text>
    </g>

    <!-- Group C: kp-less -->
    <g>
      <rect x="296" y="35" width="28" height="245" fill="#10b981" rx="3"/>
      <rect x="330" y="126" width="28" height="154" fill="#10b981" opacity="0.45" rx="3"/>
      <text x="327" y="305" text-anchor="middle" font-size="12" fill="#475569" font-weight="500">C: kp-less</text>
    </g>

    <!-- Group D: ENI -->
    <g>
      <rect x="424" y="33" width="28" height="247" fill="#3b82f6" rx="3"/>
      <rect x="458" y="87" width="28" height="193" fill="#3b82f6" opacity="0.45" rx="3"/>
      <text x="455" y="305" text-anchor="middle" font-size="12" fill="#475569" font-weight="500">D: ENI</text>
    </g>

    <!-- Group E: ENI+Tuned -->
    <g>
      <rect x="552" y="34" width="28" height="246" fill="#059669" rx="3"/>
      <rect x="586" y="124" width="28" height="156" fill="#059669" opacity="0.45" rx="3"/>
      <text x="583" y="305" text-anchor="middle" font-size="12" fill="#475569" font-weight="500">E: ENI+Tuned</text>
    </g>
  </g>
</svg>